# xmcd CD database file
#
# Track frame offsets:
#	150
#	7263
#	24206
#	42046
#	64227
#	95103
#	125795
#	165711
#	186898
#	220087
#	233397
#	266559
#	279827
#	318528
#
# Disc length: 4659 seconds
#
# Revision: 0
# Processed by: cddbd v1.5.2PL0 Copyright (c) Steve Scherf et al.
# Submitted via: CDex 1.51
#
DISCID=c112310e
DTITLE=Various Artist - Spiritual Jazz 6 - modal, esoteric and progressive jazz vocals from around the world 1960-1986
DYEAR=2015
DGENRE=Jazz
TTITLE0=Max Roach - Tears For Johannesburg
TTITLE1=Charles Mingus - Moves
TTITLE2=Sadaka - African Violet
TTITLE3=Norman Riley - Colors
TTITLE4=E W Wainright - Imani
TTITLE5=Clifford Jordan - John Coltrane
TTITLE6=Pharoah Sanders - Prince Of Peace
TTITLE7=Linda Theus - The Ladder
TTITLE8=Dr Haki R Madhubuti - Rain Forest
TTITLE9=Eddie Gale - African Sunshine
TTITLE10=Gary Bartz - Celestial Blues
TTITLE11=Byron Morris - Reunion
TTITLE12=Byron Morris - Sun Shower
TTITLE13=Vibration Society - Spirits Up Above
EXTD=YEAR: 2015
EXTT0=
EXTT1=
EXTT2=
EXTT3=
EXTT4=
EXTT5=
EXTT6=
EXTT7=
EXTT8=
EXTT9=
EXTT10=
EXTT11=
EXTT12=
EXTT13=
PLAYORDER=
